<svg width="513" height="512" viewBox="0 0 513 512" fill="none" xmlns="http://www.w3.org/2000/svg">
<path d="M444.974 414.589C445.526 413.81 445.879 412.907 446.001 411.96C446.123 411.012 446.011 410.05 445.674 409.156L432.184 372.874C431.756 371.731 430.987 370.746 429.982 370.054C428.976 369.361 427.783 368.993 426.562 369H87.3859C86.161 369.001 84.9655 369.376 83.9601 370.076C82.9547 370.776 82.1873 371.767 81.7609 372.915L68.2739 409.154C67.9318 410.047 67.8166 411.011 67.9386 411.96C68.0607 412.909 68.4162 413.812 68.9734 414.59C69.5305 415.368 70.2719 415.995 71.131 416.415C71.9901 416.836 72.9401 417.037 73.8959 417H440.052C441.007 417.03 441.955 416.827 442.813 416.406C443.671 415.986 444.413 415.362 444.974 414.589V414.589ZM82.5249 405L91.5569 381H422.391L431.423 405H82.5249Z" fill="#8F12FE" fill-opacity="0.8"/>
<path d="M108.974 157.112C107.383 157.112 105.857 157.744 104.731 158.869C103.606 159.995 102.974 161.521 102.974 163.112V229.728C102.974 231.319 103.606 232.845 104.731 233.971C105.857 235.096 107.383 235.728 108.974 235.728C110.565 235.728 112.091 235.096 113.217 233.971C114.342 232.845 114.974 231.319 114.974 229.728V163.112C114.974 161.521 114.342 159.995 113.217 158.869C112.091 157.744 110.565 157.112 108.974 157.112Z" fill="#8F12FE" fill-opacity="0.8"/>
<path d="M108.974 136.156C107.383 136.156 105.857 136.788 104.731 137.913C103.606 139.039 102.974 140.565 102.974 142.156V145.356C102.974 146.947 103.606 148.473 104.731 149.599C105.857 150.724 107.383 151.356 108.974 151.356C110.565 151.356 112.091 150.724 113.217 149.599C114.342 148.473 114.974 146.947 114.974 145.356V142.156C114.974 140.565 114.342 139.039 113.217 137.913C112.091 136.788 110.565 136.156 108.974 136.156Z" fill="#8F12FE" fill-opacity="0.8"/>
<path d="M256.974 54.541C258.565 54.541 260.091 53.9089 261.217 52.7837C262.342 51.6585 262.974 50.1323 262.974 48.541V23.241C262.974 21.6497 262.342 20.1236 261.217 18.9984C260.091 17.8732 258.565 17.241 256.974 17.241C255.383 17.241 253.857 17.8732 252.731 18.9984C251.606 20.1236 250.974 21.6497 250.974 23.241V48.541C250.974 50.1323 251.606 51.6585 252.731 52.7837C253.857 53.9089 255.383 54.541 256.974 54.541V54.541Z" fill="#8F12FE" fill-opacity="0.8"/>
<path d="M352.274 150H377.587C379.178 150 380.704 149.368 381.83 148.243C382.955 147.117 383.587 145.591 383.587 144C383.587 142.409 382.955 140.883 381.83 139.757C380.704 138.632 379.178 138 377.587 138H352.274C350.683 138 349.157 138.632 348.031 139.757C346.906 140.883 346.274 142.409 346.274 144C346.274 145.591 346.906 147.117 348.031 148.243C349.157 149.368 350.683 150 352.274 150V150Z" fill="#8F12FE" fill-opacity="0.8"/>
<path d="M161.674 138H136.359C134.768 138 133.242 138.632 132.116 139.757C130.991 140.883 130.359 142.409 130.359 144C130.359 145.591 130.991 147.117 132.116 148.243C133.242 149.368 134.768 150 136.359 150H161.674C163.265 150 164.791 149.368 165.917 148.243C167.042 147.117 167.674 145.591 167.674 144C167.674 142.409 167.042 140.883 165.917 139.757C164.791 138.632 163.265 138 161.674 138Z" fill="#8F12FE" fill-opacity="0.8"/>
<path d="M326.216 80.584C327.004 80.5852 327.784 80.4307 328.512 80.1293C329.24 79.8279 329.901 79.3857 330.457 78.828L350.21 59.088C350.767 58.531 351.21 57.8697 351.511 57.1418C351.813 56.4139 351.968 55.6337 351.969 54.8458C351.969 54.0578 351.814 53.2776 351.513 52.5495C351.211 51.8214 350.77 51.1599 350.213 50.6025C349.656 50.0452 348.994 49.603 348.266 49.3013C347.538 48.9995 346.758 48.8441 345.97 48.8439C345.182 48.8436 344.402 48.9986 343.674 49.2999C342.946 49.6013 342.284 50.043 341.727 50.6L321.974 70.34C321.135 71.179 320.563 72.248 320.331 73.412C320.099 74.576 320.218 75.7825 320.672 76.8791C321.126 77.9757 321.895 78.913 322.881 79.5725C323.868 80.2319 325.028 80.584 326.215 80.584H326.216Z" fill="#8F12FE" fill-opacity="0.8"/>
<path d="M183.491 78.828C184.617 79.9529 186.143 80.5846 187.734 80.5842C188.522 80.5839 189.302 80.4285 190.03 80.1268C190.758 79.825 191.42 79.3829 191.977 78.8255C192.534 78.2682 192.975 77.6066 193.277 76.8786C193.578 76.1505 193.733 75.3702 193.733 74.5823C193.732 73.7943 193.577 73.0141 193.275 72.2862C192.974 71.5584 192.531 70.897 191.974 70.34L172.221 50.6C171.664 50.043 171.002 49.6013 170.274 49.2999C169.546 48.9986 168.766 48.8436 167.978 48.8439C167.19 48.8441 166.41 48.9995 165.682 49.3013C164.954 49.603 164.293 50.0452 163.736 50.6025C163.179 51.1599 162.737 51.8214 162.435 52.5495C162.134 53.2776 161.979 54.0578 161.979 54.8458C161.98 55.6337 162.135 56.4139 162.437 57.1418C162.739 57.8697 163.181 58.531 163.738 59.088L183.491 78.828Z" fill="#8F12FE" fill-opacity="0.8"/>
<path d="M208.974 149.415C210.565 149.415 212.091 148.783 213.217 147.658C214.342 146.532 214.974 145.006 214.974 143.415C214.958 137.441 216.135 131.523 218.436 126.01C220.737 120.496 224.116 115.497 228.374 111.307C231.075 108.627 234.102 106.295 237.382 104.367C238.755 103.562 239.751 102.245 240.153 100.705C240.554 99.1648 240.327 97.5286 239.522 96.156C238.717 94.7834 237.4 93.7868 235.86 93.3854C234.32 92.9841 232.684 93.2109 231.311 94.016C227.167 96.4515 223.343 99.3957 219.93 102.78C214.541 108.083 210.265 114.41 207.354 121.387C204.442 128.365 202.953 135.854 202.974 143.415C202.974 145.006 203.606 146.532 204.731 147.658C205.857 148.783 207.383 149.415 208.974 149.415V149.415Z" fill="#8F12FE" fill-opacity="0.8"/>
<path d="M249.674 99.289C250.086 99.2888 250.496 99.2466 250.899 99.163C252.709 98.7882 254.541 98.5237 256.383 98.371C257.17 98.3089 257.938 98.0919 258.641 97.7325C259.345 97.3731 259.97 96.8784 260.482 96.2767C260.994 95.6749 261.382 94.9781 261.623 94.2261C261.865 93.4741 261.956 92.6817 261.891 91.8945C261.826 91.1073 261.606 90.3407 261.244 89.6387C260.882 88.9367 260.384 88.3131 259.781 87.8037C259.177 87.2943 258.479 86.9092 257.726 86.6703C256.973 86.4315 256.18 86.3437 255.393 86.412C253.065 86.6045 250.75 86.9384 248.462 87.412C247.006 87.7114 245.713 88.5406 244.834 89.7389C243.954 90.9372 243.551 92.4193 243.702 93.8981C243.853 95.3768 244.547 96.7469 245.65 97.7429C246.754 98.7389 248.188 99.2898 249.674 99.289V99.289Z" fill="#8F12FE" fill-opacity="0.8"/>
<path d="M501.466 460L457.074 358.92C456.294 357.021 455.261 355.236 454.002 353.615C456.771 351.429 459.014 348.651 460.567 345.484C462.121 342.317 462.945 338.842 462.978 335.315V108.265C462.895 101.293 460.076 94.6332 455.129 89.7202C450.182 84.8072 443.502 82.0347 436.53 82H300.574C288.008 72.506 272.688 67.3694 256.939 67.3694C241.19 67.3694 225.87 72.506 213.304 82H77.418C70.4465 82.0357 63.7681 84.8088 58.8217 89.7216C53.8754 94.6345 51.057 101.294 50.974 108.265V335.313C51.0079 338.966 51.8864 342.561 53.5407 345.818C55.195 349.075 57.5803 351.905 60.51 354.087C59.4028 355.551 58.4739 357.141 57.743 358.825L12.453 460.083H12.478C12.1397 460.855 11.9693 461.69 11.978 462.533V471.206C11.9766 477.476 14.4503 483.492 18.8612 487.948C23.2721 492.404 29.2636 494.938 35.533 495H478.415C484.685 494.939 490.677 492.406 495.089 487.95C499.5 483.495 501.975 477.478 501.974 471.208V462.535C501.949 461.667 501.777 460.81 501.466 460V460ZM214.384 96.892C220.078 91.2446 226.838 86.786 234.271 83.7756C241.704 80.7652 249.661 79.2631 257.68 79.3567C265.699 79.4503 273.619 81.1378 280.98 84.321C288.341 87.5042 294.995 92.1194 300.555 97.8982C306.115 103.677 310.471 110.504 313.368 117.982C316.265 125.46 317.646 133.439 317.431 141.456C317.216 149.472 315.408 157.366 312.114 164.677C308.819 171.989 304.103 178.572 298.241 184.044C292.825 189.061 288.498 195.137 285.528 201.896C282.558 208.654 281.008 215.951 280.974 223.333V224H262.974V174.188C264.197 174.671 265.502 174.914 266.817 174.905C272.553 174.905 275.365 170.723 276.876 168.476C277.116 168.12 277.442 167.634 277.694 167.309C279.214 167.128 280.608 166.373 281.589 165.199C282.571 164.024 283.067 162.518 282.975 160.99C282.883 159.462 282.21 158.027 281.094 156.979C279.979 155.93 278.505 155.348 276.974 155.351C271.239 155.351 268.427 159.533 266.916 161.78L266.816 161.929C266.782 161.877 266.748 161.829 266.716 161.78C265.205 159.533 262.393 155.351 256.658 155.351C250.923 155.351 248.112 159.534 246.601 161.781C246.571 161.828 246.538 161.875 246.501 161.925L246.401 161.781C244.891 159.534 242.079 155.351 236.344 155.351C234.813 155.348 233.339 155.931 232.224 156.979C231.109 158.028 230.436 159.463 230.344 160.991C230.253 162.519 230.748 164.024 231.73 165.199C232.711 166.373 234.105 167.128 235.625 167.309C235.877 167.634 236.203 168.119 236.442 168.475C237.952 170.722 240.764 174.905 246.499 174.905C248.045 174.919 249.573 174.579 250.967 173.911V224H232.974V223.333C232.997 216.015 231.503 208.772 228.587 202.061C225.67 195.35 221.393 189.316 216.027 184.341C210.003 178.811 205.164 172.115 201.803 164.66C198.443 157.205 196.631 149.145 196.478 140.968C196.324 132.792 197.832 124.67 200.91 117.093C203.988 109.517 208.572 102.645 214.384 96.892V96.892ZM225.074 255C224.578 254.95 224.118 254.718 223.784 254.349C223.449 253.979 223.264 253.498 223.264 253C223.264 252.502 223.449 252.021 223.784 251.651C224.118 251.282 224.578 251.05 225.074 251H288.874C289.372 251.044 289.835 251.275 290.17 251.646C290.505 252.017 290.688 252.5 290.682 253C290.655 253.515 290.44 254.002 290.08 254.37C289.719 254.738 289.236 254.962 288.722 255H225.074ZM287.474 268.5C287.474 269.5 286.663 270 285.667 270H228.274C227.274 270 226.467 269.5 226.467 268.5C226.467 267.5 227.278 267 228.274 267H285.674C286.667 267 287.474 267.5 287.474 268.5ZM221.931 239C220.931 239 220.097 238.5 220.097 237.5C220.097 236.5 220.882 236 221.879 236H292.074C293.074 236 293.882 236.5 293.882 237.5C293.882 238.5 293.071 239 292.074 239H221.931ZM62.974 108.265C62.9851 104.485 64.4915 100.863 67.1643 98.1904C69.8371 95.5176 73.4591 94.0111 77.239 94H200.822C198.007 97.4306 195.514 101.113 193.374 105H95.238C90.6593 105 86.2681 106.819 83.0305 110.057C79.7929 113.294 77.974 117.685 77.974 122.264V150C77.974 151.591 78.6061 153.117 79.7313 154.243C80.8566 155.368 82.3827 156 83.974 156C85.5653 156 87.0914 155.368 88.2166 154.243C89.3418 153.117 89.974 151.591 89.974 150V123.009C89.9787 121.417 90.6133 119.891 91.7392 118.765C92.8651 117.639 94.3908 117.005 95.983 117H188.145C183.755 130.254 183.285 144.493 186.791 158.007C190.298 171.521 197.632 183.735 207.913 193.182C212.056 197.032 215.355 201.699 217.603 206.889C219.851 212.078 220.999 217.678 220.974 223.333V223.633C217.483 223.885 214.214 225.441 211.816 227.991C209.419 230.541 208.068 233.9 208.031 237.4C208.036 239.288 208.429 241.156 209.186 242.886C209.943 244.616 211.047 246.172 212.431 247.457C211.279 250.071 210.969 252.98 211.545 255.778C212.121 258.576 213.554 261.126 215.645 263.073C214.84 264.813 214.438 266.713 214.472 268.63C214.58 272.231 216.093 275.646 218.688 278.145C221.282 280.643 224.752 282.027 228.354 282H285.454C293.12 282 299.667 275.725 299.471 268.062C299.423 266.301 299.024 264.567 298.298 262.962C300.389 261.033 301.823 258.496 302.397 255.71C302.971 252.923 302.656 250.027 301.498 247.428C302.883 246.146 303.991 244.593 304.75 242.865C305.51 241.137 305.907 239.272 305.915 237.384C305.878 233.886 304.527 230.529 302.129 227.981C299.732 225.434 296.464 223.881 292.974 223.631V223.283C293.011 217.557 294.223 211.899 296.535 206.66C298.848 201.422 302.211 196.714 306.418 192.828C316.569 183.37 323.79 171.197 327.225 157.755C330.66 144.313 330.164 130.168 325.795 117H418.71C420.106 117 421.445 117.555 422.432 118.542C423.419 119.529 423.974 120.868 423.974 122.264V318.042C423.969 319.621 423.34 321.134 422.224 322.25C421.108 323.366 419.595 323.996 418.016 324H95.932C94.3532 323.996 92.8404 323.366 91.724 322.25C90.6076 321.134 89.9785 319.621 89.974 318.042V192C89.974 190.409 89.3418 188.883 88.2166 187.757C87.0914 186.632 85.5653 186 83.974 186C82.3827 186 80.8566 186.632 79.7313 187.757C78.6061 188.883 77.974 190.409 77.974 192V318.042C77.988 322.8 79.8845 327.36 83.2492 330.725C86.614 334.09 91.1735 335.986 95.932 336H418.71C423.289 336 427.68 334.181 430.917 330.943C434.155 327.706 435.974 323.315 435.974 318.736V122.264C435.974 117.685 434.155 113.294 430.917 110.057C427.68 106.819 423.289 105 418.71 105H320.543C318.393 101.112 315.889 97.4299 313.065 94H436.53C440.357 94.0114 444.025 95.5368 446.731 98.2431C449.437 100.949 450.963 104.617 450.974 108.444V335.313C450.965 338.41 449.731 341.377 447.541 343.567C445.351 345.757 442.384 346.991 439.287 347H74.891C71.7332 346.991 68.7075 345.732 66.4746 343.499C64.2417 341.267 62.9832 338.241 62.974 335.083V108.265ZM68.785 363.965C69.693 361.927 71.1653 360.192 73.028 358.965L441.695 358.778C443.639 360.08 445.163 361.919 446.081 364.071L486.787 457H328.687L320.481 432.157C320.087 430.954 319.324 429.905 318.301 429.159C317.278 428.413 316.047 428.008 314.781 428H199.16C197.894 428.008 196.663 428.413 195.64 429.159C194.617 429.905 193.854 430.954 193.46 432.157L185.258 457H27.234L68.785 363.965ZM316.05 457H197.898L203.498 440H310.453L316.05 457ZM489.974 471.208C489.978 474.297 488.769 477.263 486.607 479.469C484.445 481.674 481.503 482.943 478.415 483H35.533C32.4449 482.943 29.503 481.674 27.341 479.469C25.1789 477.263 23.9698 474.297 23.974 471.208V469H489.974V471.208Z" fill="#8F12FE" fill-opacity="0.8"/>
</svg>
