<svg width="512" height="512" viewBox="0 0 512 512" fill="none" xmlns="http://www.w3.org/2000/svg">
<g clip-path="url(#clip0)">
<path d="M511.872 195.725C511.819 195.137 511.702 194.556 511.522 193.993C511.405 193.49 511.242 192.999 511.036 192.525C510.797 192.062 510.511 191.624 510.183 191.219C509.854 190.738 509.473 190.295 509.048 189.896C508.911 189.777 508.852 189.614 508.707 189.495L426.642 125.76V59.704C426.642 45.566 415.18 34.104 401.042 34.104H308.566L271.539 5.35502C262.392 -1.77898 249.565 -1.77898 240.418 5.35502L203.383 34.104H110.907C96.769 34.104 85.307 45.565 85.307 59.704V125.761L3.26798 189.496C3.12298 189.616 3.06298 189.778 2.92698 189.897C2.50198 190.295 2.12098 190.739 1.79198 191.22C1.46398 191.625 1.17798 192.062 0.938977 192.526C0.731977 192.999 0.569977 193.491 0.452977 193.994C0.274977 194.549 0.157977 195.121 0.102977 195.701C0.102977 195.88 0.000976562 196.034 0.000976562 196.213V486.37C0.0129766 491.798 1.76898 497.078 5.00998 501.431C5.06098 501.508 5.06998 501.602 5.12898 501.67C5.18898 501.738 5.31698 501.815 5.40198 501.909C10.196 508.217 17.652 511.936 25.575 511.97H486.375C494.329 511.946 501.816 508.209 506.616 501.867C506.684 501.782 506.787 501.756 506.846 501.671C506.906 501.586 506.914 501.509 506.966 501.432C510.207 497.078 511.963 491.798 511.975 486.371V196.237C511.974 196.058 511.881 195.904 511.872 195.725ZM250.854 18.82C253.834 16.452 258.054 16.452 261.034 18.82L280.72 34.103H231.227L250.854 18.82ZM27.725 494.904L250.855 321.583C253.837 319.219 258.054 319.219 261.035 321.583L484.224 494.904H27.725ZM494.908 481.6L271.539 308.117C262.39 300.989 249.567 300.989 240.418 308.117L17.041 481.6V209.233L156.877 317.82C160.603 320.709 165.965 320.031 168.854 316.305C171.743 312.579 171.065 307.217 167.339 304.328L25.276 194.018L85.308 147.366V213.303C85.308 218.016 89.129 221.836 93.841 221.836C98.554 221.836 102.374 218.015 102.374 213.303V59.703C102.374 54.99 106.194 51.17 110.907 51.17H401.04C405.753 51.17 409.573 54.99 409.573 59.703V213.303C409.573 218.016 413.393 221.836 418.106 221.836C422.819 221.836 426.639 218.015 426.639 213.303V147.366L486.671 194.018L344.361 304.525C341.913 306.38 340.65 309.408 341.056 312.453C341.462 315.498 343.473 318.09 346.322 319.239C349.171 320.388 352.418 319.918 354.823 318.007L494.906 209.233V481.6H494.908Z" fill="#8F12FE" fill-opacity="0.8"/>
<path d="M358.374 204.77V170.637C358.374 114.083 312.528 68.237 255.974 68.237C199.42 68.237 153.574 114.083 153.574 170.637C153.574 227.191 199.42 273.037 255.974 273.037C260.687 273.037 264.507 269.217 264.507 264.504C264.507 259.791 260.687 255.971 255.974 255.971C208.846 255.971 170.641 217.766 170.641 170.638C170.641 123.51 208.846 85.305 255.974 85.305C303.102 85.305 341.307 123.51 341.307 170.638V204.771C341.307 214.197 333.666 221.838 324.24 221.838C314.814 221.838 307.173 214.197 307.173 204.771V170.638C307.173 165.925 303.353 162.105 298.64 162.105C293.927 162.105 290.107 165.925 290.107 170.638C290.107 189.489 274.825 204.771 255.974 204.771C237.123 204.771 221.841 189.489 221.841 170.638C221.841 151.787 237.123 136.505 255.974 136.505C260.687 136.505 264.507 132.685 264.507 127.972C264.507 123.259 260.687 119.439 255.974 119.439C233.059 119.388 212.9 134.569 206.62 156.607C200.34 178.645 209.467 202.172 228.967 214.208C248.467 226.244 273.589 223.858 290.474 208.365C292.332 226.411 308.017 239.829 326.133 238.87C344.25 237.91 358.431 222.912 358.374 204.77Z" fill="#8F12FE" fill-opacity="0.8"/>
</g>
<defs>
<clipPath id="clip0">
<rect width="511.974" height="511.974" fill="white"/>
</clipPath>
</defs>
</svg>
