<svg width="513" height="512" viewBox="0 0 513 512" fill="none" xmlns="http://www.w3.org/2000/svg">
<g clip-path="url(#clip0)">
<path d="M267.641 298.667H438.308C444.196 298.667 448.975 293.888 448.975 288C448.975 282.112 444.196 277.333 438.308 277.333H267.641C261.753 277.333 256.974 282.112 256.974 288C256.974 293.888 261.753 298.667 267.641 298.667Z" fill="#8F12FE" fill-opacity="0.8"/>
<path d="M512.974 202.667V160C512.974 149.696 509.902 140.16 504.825 131.989C504.697 131.733 504.676 131.434 504.526 131.2L438.563 25.173C428.771 9.429 411.833 0 393.273 0H120.697C102.116 0 85.198 9.429 75.406 25.173L9.443 131.2C9.315 131.413 9.315 131.648 9.187 131.883C4.067 140.053 0.973999 149.653 0.973999 160V202.667C0.973999 220.16 9.571 235.606 22.649 245.334C9.571 255.061 0.973999 270.485 0.973999 288V330.667C0.973999 348.16 9.571 363.606 22.649 373.334C9.571 383.061 0.973999 398.485 0.973999 416V458.667C0.973999 488.064 24.91 512 54.307 512H194.168C200.077 512 204.835 507.221 204.835 501.333C204.835 495.445 200.056 490.666 194.168 490.666H54.307C36.664 490.666 22.307 476.309 22.307 458.666V416C22.307 398.336 36.664 384 54.307 384H232.739C238.627 384 243.406 379.221 243.406 373.333C243.406 367.445 238.627 362.666 232.739 362.666H54.307C36.664 362.666 22.307 348.309 22.307 330.666V288C22.307 270.336 36.664 256 54.307 256H459.64C477.283 256 491.64 270.357 491.64 288V330.667C491.64 335.36 490.488 340.075 488.269 344.619C485.688 349.91 487.864 356.288 493.154 358.891C498.466 361.494 504.845 359.318 507.426 354.006C511.117 346.497 512.973 338.667 512.973 330.667V288C512.973 270.507 504.376 255.061 491.298 245.333C504.377 235.584 512.974 220.16 512.974 202.667ZM93.518 36.437C99.385 26.986 109.539 21.333 120.675 21.333H393.251C404.387 21.333 414.542 26.986 420.43 36.437L464.441 107.157C462.841 106.986 461.284 106.666 459.641 106.666H54.307C52.664 106.666 51.107 106.986 49.507 107.135L93.518 36.437ZM491.641 202.667C491.641 220.31 477.284 234.667 459.641 234.667H54.307C36.664 234.667 22.307 220.31 22.307 202.667V160C22.307 142.336 36.664 128 54.307 128H459.64C477.283 128 491.64 142.336 491.64 160V202.667H491.641Z" fill="#8F12FE" fill-opacity="0.8"/>
<path d="M43.6411 437.333C43.6411 454.976 57.9981 469.333 75.6411 469.333C93.2841 469.333 107.641 454.976 107.641 437.333C107.641 419.69 93.2841 405.333 75.6411 405.333C57.9981 405.333 43.6411 419.669 43.6411 437.333ZM86.3071 437.333C86.3071 443.221 81.5281 448 75.6401 448C69.7521 448 64.9741 443.221 64.9741 437.333C64.9741 431.445 69.7531 426.666 75.6411 426.666C81.5291 426.666 86.3071 431.445 86.3071 437.333Z" fill="#8F12FE" fill-opacity="0.8"/>
<path d="M438.307 362.667C436.366 362.667 434.424 362.774 432.526 362.944C414.755 336.277 384.91 320 352.974 320C303.31 320 262.329 357.909 257.465 406.315C232.91 411.051 214.308 432.726 214.308 458.667C214.308 488.064 238.244 512 267.641 512H438.308C479.481 512 512.974 478.507 512.974 437.333C512.974 396.159 479.481 362.667 438.307 362.667ZM438.307 490.667H267.641C249.998 490.667 235.641 476.31 235.641 458.667C235.641 441.024 249.998 426.667 267.641 426.667C273.529 426.667 278.308 421.888 278.308 416C278.308 374.827 311.801 341.333 352.975 341.333C379.642 341.333 404.495 356.032 417.786 379.69C420.005 383.637 424.399 385.727 428.965 384.959C432.016 384.426 435.109 383.999 438.309 383.999C467.706 383.999 491.642 407.935 491.642 437.332C491.642 466.729 467.705 490.667 438.307 490.667Z" fill="#8F12FE" fill-opacity="0.8"/>
<path d="M438.307 149.333H267.641C261.753 149.333 256.974 154.112 256.974 160C256.974 165.888 261.753 170.667 267.641 170.667H438.308C444.196 170.667 448.975 165.888 448.975 160C448.975 154.112 444.195 149.333 438.307 149.333Z" fill="#8F12FE" fill-opacity="0.8"/>
<path d="M438.307 192H267.641C261.753 192 256.974 196.779 256.974 202.667C256.974 208.555 261.753 213.334 267.641 213.334H438.308C444.196 213.334 448.975 208.555 448.975 202.667C448.975 196.779 444.195 192 438.307 192Z" fill="#8F12FE" fill-opacity="0.8"/>
<path d="M75.6411 149.333C57.9981 149.333 43.6411 163.669 43.6411 181.333C43.6411 198.997 57.9981 213.333 75.6411 213.333C93.2841 213.333 107.641 198.976 107.641 181.333C107.641 163.691 93.2831 149.333 75.6411 149.333ZM75.6411 192C69.7531 192 64.9741 187.221 64.9741 181.333C64.9741 175.445 69.7531 170.666 75.6411 170.666C81.5291 170.666 86.3081 175.445 86.3081 181.333C86.3081 187.221 81.5291 192 75.6411 192Z" fill="#8F12FE" fill-opacity="0.8"/>
<path d="M43.6411 309.333C43.6411 326.976 57.9981 341.333 75.6411 341.333C93.2841 341.333 107.641 326.976 107.641 309.333C107.641 291.69 93.2841 277.333 75.6411 277.333C57.9981 277.333 43.6411 291.669 43.6411 309.333ZM86.3071 309.333C86.3071 315.221 81.5281 320 75.6401 320C69.7521 320 64.9741 315.221 64.9741 309.333C64.9741 303.445 69.7531 298.666 75.6411 298.666C81.5291 298.666 86.3071 303.445 86.3071 309.333Z" fill="#8F12FE" fill-opacity="0.8"/>
</g>
<defs>
<clipPath id="clip0">
<rect width="512" height="512" fill="white" transform="translate(0.973999)"/>
</clipPath>
</defs>
</svg>
