<?xml version="1.0" encoding="UTF-8"?><svg version="1.1" id="Layer_1" xmlns="http://www.w3.org/2000/svg" xmlns:xlink="http://www.w3.org/1999/xlink" x="0px" y="0px" viewBox="0 0 1000 1000" enable-background="new 0 0 1000 1000" xml:space="preserve" width="1000px" height="1000px">
<g>
	<g id="Layer_1_1_">
		
			<path opacity="0.41" stroke="#000000" stroke-width="10" stroke-linecap="round" stroke-linejoin="round" enable-background="new    " d="
			M692.254,414.781h-380c-72.902,0.017-131.986,59.129-131.969,132.031s59.129,131.986,132.031,131.969
			c49.597-0.011,95.001-27.823,117.545-72h144.788c33.13,64.946,112.637,90.738,177.583,57.607
			c64.946-33.13,90.738-112.637,57.607-177.583C787.292,442.608,741.869,414.785,692.254,414.781z"/>
		<g opacity="0.41" enable-background="new    ">
			<path d="M502.254,387.542c-2.761,0-5-2.239-5-5V263.084c0-10.891-8.86-19.751-19.751-19.751H290
				c-7.946,0-15.417-3.094-21.037-8.713c-5.619-5.619-8.714-13.089-8.714-21.036c0-16.405,13.346-29.752,29.75-29.752H687.5
				c10.891,0,19.751-8.86,19.751-19.751c0-5.275-2.054-10.235-5.784-13.966s-8.689-5.785-13.965-5.785H527
				c-16.403,0-29.75-13.345-29.751-29.749V9c0-2.761,2.239-5,5-5c2.762,0,5,2.239,5,5v105.579
				c0.001,10.891,8.861,19.751,19.751,19.751h160.5c7.947,0,15.419,3.095,21.038,8.714s8.714,13.09,8.713,21.037
				c0,16.404-13.347,29.75-29.751,29.75H290c-10.891,0-19.751,8.86-19.751,19.75c0,5.276,2.055,10.236,5.785,13.967
				c3.73,3.73,8.69,5.784,13.966,5.784h187.5c16.408,0,29.754,13.346,29.754,29.751v119.458
				C507.254,385.303,505.016,387.542,502.254,387.542z"/>
		</g>
		<g>
			<path fill="#663C3B" d="M507.254,369.209h-10V249.751c0-5.275-2.054-10.235-5.784-13.966c-3.73-3.73-8.689-5.785-13.965-5.785
				H290c-7.946,0-15.417-3.094-21.037-8.713c-5.619-5.619-8.714-13.089-8.714-21.036c0-7.948,3.096-15.419,8.715-21.039
				c5.619-5.618,13.09-8.712,21.036-8.712c0.001,0,0.001,0,0.002,0H687.5c10.89,0,19.75-8.859,19.751-19.75
				C707.25,139.86,698.39,131,687.5,131H527c-16.404,0-29.751-13.346-29.751-29.751V0h10v101.249
				c0,10.891,8.86,19.751,19.751,19.751h160.5c16.403,0,29.75,13.345,29.751,29.749c-0.001,16.405-13.348,29.751-29.75,29.751
				c-0.001,0,0,0-0.001,0H290.005c0,0-0.001,0-0.001,0c-5.279,0-10.238,2.054-13.968,5.784c-3.731,3.73-5.786,8.69-5.786,13.966
				c0,5.275,2.055,10.236,5.785,13.966c3.73,3.73,8.69,5.784,13.966,5.784h187.5c7.952,0,15.422,3.095,21.042,8.714
				c5.619,5.62,8.713,13.09,8.712,21.037V369.209z"/>
		</g>
		<rect x="473.254" y="379" fill="#663C3B" width="58" height="12.499"/>
		<rect x="481.508" y="372.75" fill="#663C3B" width="41.492" height="9.792"/>
		<rect x="487.008" y="366.501" fill="#663C3B" width="30.492" height="9.374"/>
		<path fill="#FEC556" d="M692.254,391.781h-380c-72.902,0.017-131.986,59.129-131.969,132.031s59.129,131.986,132.031,131.969
			c49.597-0.011,95.001-27.823,117.545-72h144.788c33.13,64.946,112.637,90.738,177.583,57.607
			c64.946-33.13,90.738-112.637,57.607-177.583C787.292,419.608,741.869,391.785,692.254,391.781z"/>
		<path fill="#F29940" d="M453.746,435.583h28c2.209,0,4,1.791,4,4l0,0c0,2.209-1.791,4-4,4h-28c-2.209,0-4-1.791-4-4l0,0
			C449.746,437.374,451.537,435.583,453.746,435.583z"/>
		<path fill="#F29940" d="M503.5,435.912h56.944c2.209,0,4,1.791,4,4l0,0c0,2.209-1.791,4-4,4H503.5c-2.209,0-4-1.791-4-4l0,0
			C499.5,437.703,501.291,435.912,503.5,435.912z"/>
		<path fill="#F29940" d="M453.62,452.417h106.761c2.209,0,4,1.791,4,4l0,0c0,2.209-1.791,4-4,4H453.62c-2.209,0-4-1.791-4-4l0,0
			C449.62,454.208,451.411,452.417,453.62,452.417z"/>
		<path fill="#F29940" d="M494.808,500.296L494.808,500.296c3.515,3.515,3.515,9.213,0,12.728l-29.698,29.698
			c-3.515,3.515-9.213,3.515-12.728,0l0,0c-3.515-3.515-3.515-9.213,0-12.728l29.698-29.698
			C485.595,496.782,491.293,496.782,494.808,500.296z"/>
		<path fill="#F29940" d="M561.808,500.296L561.808,500.296c3.515,3.515,3.515,9.213,0,12.728l-29.698,29.698
			c-3.515,3.515-9.213,3.515-12.728,0l0,0c-3.515-3.515-3.515-9.213,0-12.728l29.698-29.699
			C552.595,496.782,558.294,496.782,561.808,500.296z"/>
		<path fill="#F29940" d="M312.254,403.333h380c71.335,0,129.443,55.612,131.909,125.126c0.054-1.553,0.091-3.111,0.091-4.678
			c0-72.902-59.098-132-132-132h-380c-72.902,0-132,59.098-132,132c0,1.567,0.037,3.125,0.091,4.678
			C182.811,458.945,240.919,403.333,312.254,403.333z"/>
		<path fill="#F29940" d="M692.254,638.781c-51.3,0-92.757-21.26-114.606-64H426.86c-21.849,42.74-63.31,64-114.606,64
			c-69.599-0.003-127.238-54.045-131.72-123.5c-0.179,2.811-0.28,5.644-0.28,8.5c0.011,72.912,59.126,132.01,132.038,132
			c49.603-0.007,95.017-27.819,117.568-72h144.788c33.148,64.942,112.665,90.716,177.606,57.568
			c44.181-22.551,71.993-67.964,72-117.568c0-2.856-0.1-5.689-0.28-8.5C819.492,584.736,761.853,638.778,692.254,638.781z"/>
		<circle fill="#F29940" cx="312.762" cy="531" r="85"/>
		<circle fill="#835559" cx="312.762" cy="523.781" r="84"/>
		<circle fill="#95676B" cx="312.762" cy="523.781" r="71"/>
		<path fill="#663C3B" d="M363.158,507.781h-34.4v-34.4c0-2.54-2.059-4.6-4.6-4.6l0,0h-22.793c-2.54,0-4.6,2.059-4.6,4.6l0,0v34.4
			h-34.4c-2.54,0-4.6,2.059-4.6,4.6v22.792c0,2.541,2.06,4.6,4.6,4.6h34.4v34.4c0,2.541,2.06,4.6,4.6,4.6h22.793
			c2.54,0,4.6-2.059,4.6-4.6v-34.4h34.4c2.54,0,4.6-2.059,4.6-4.6v-22.788c0.002-2.54-2.055-4.602-4.596-4.604
			C363.161,507.781,363.159,507.781,363.158,507.781z"/>
		<g>
			<path fill="#663C3B" d="M312.762,610.781c-47.972,0-87-39.028-87-87c0-47.972,39.028-87,87-87s87,39.028,87,87
				C399.762,571.753,360.734,610.781,312.762,610.781z M312.762,442.781c-44.664,0-81,36.336-81,81c0,44.663,36.336,81,81,81
				s81-36.337,81-81C393.762,479.118,357.426,442.781,312.762,442.781z"/>
		</g>
		<circle fill="#F29940" cx="692.762" cy="531" r="85"/>
		<circle fill="#835559" cx="692.762" cy="523.781" r="84"/>
		<circle fill="#95676B" cx="692.762" cy="523.781" r="71"/>
		<g>
			<path fill="#663C3B" d="M692.762,610.781c-47.972,0-87-39.028-87-87c0-47.972,39.028-87,87-87s87,39.028,87,87
				C779.762,571.753,740.733,610.781,692.762,610.781z M692.762,442.781c-44.663,0-81,36.336-81,81c0,44.663,36.337,81,81,81
				s81-36.337,81-81C773.762,479.118,737.425,442.781,692.762,442.781z"/>
		</g>
		<path fill="#FEC556" d="M306.308,487.21l5.547-9.608c0.289-0.501,0.93-0.672,1.43-0.383c0.159,0.092,0.291,0.224,0.383,0.383
			l5.547,9.608c0.289,0.5,0.119,1.14-0.381,1.429c-0.159,0.092-0.34,0.141-0.525,0.141h-11.094c-0.578,0-1.047-0.469-1.047-1.047
			C306.168,487.549,306.216,487.369,306.308,487.21z"/>
		<path fill="#FEC556" d="M306.308,560.352l5.547,9.608c0.289,0.501,0.93,0.672,1.43,0.383c0.159-0.092,0.291-0.224,0.383-0.383
			l5.547-9.608c0.289-0.5,0.119-1.14-0.381-1.429c-0.159-0.092-0.34-0.141-0.525-0.141h-11.094c-0.578,0-1.047,0.469-1.047,1.047
			C306.168,560.013,306.216,560.193,306.308,560.352z"/>
		<g>
			<path fill="#663C3B" d="M324.158,580.273h-22.793c-3.364,0-6.1-2.736-6.1-6.101v-32.899h-32.9c-3.364,0-6.1-2.736-6.1-6.101
				v-22.792c0-3.363,2.736-6.1,6.1-6.1h32.9v-32.9c0-3.363,2.736-6.1,6.1-6.1h22.793c3.363,0,6.1,2.736,6.1,6.1v32.9h32.904
				c1.63,0.001,3.162,0.637,4.313,1.79c1.151,1.153,1.784,2.686,1.783,4.314v22.787c0,3.364-2.736,6.101-6.1,6.101h-32.9v32.899
				C330.258,577.537,327.521,580.273,324.158,580.273z M262.365,509.281c-1.709,0-3.1,1.391-3.1,3.1v22.792
				c0,1.71,1.391,3.101,3.1,3.101h34.4c0.829,0,1.5,0.672,1.5,1.5v34.399c0,1.71,1.391,3.101,3.1,3.101h22.793
				c1.709,0,3.1-1.391,3.1-3.101v-34.399c0-0.828,0.671-1.5,1.5-1.5h34.4c1.709,0,3.1-1.391,3.1-3.101v-22.788
				c0.001-0.829-0.321-1.607-0.906-2.193c-0.585-0.587-1.363-0.909-2.191-0.91l-0.003-1.5v1.5h-34.4c-0.829,0-1.5-0.672-1.5-1.5
				v-34.4c0-1.709-1.391-3.1-3.1-3.1h-22.793c-1.709,0-3.1,1.391-3.1,3.1v34.4c0,0.828-0.671,1.5-1.5,1.5H262.365z"/>
		</g>
		<path fill="#FEC556" d="M347.618,517.328l9.608,5.547c0.5,0.289,0.672,0.928,0.383,1.429c-0.092,0.159-0.224,0.291-0.383,0.383
			l-9.608,5.548c-0.501,0.289-1.141,0.117-1.43-0.384c-0.092-0.159-0.14-0.339-0.14-0.523v-11.094c0-0.578,0.468-1.046,1.045-1.047
			C347.278,517.187,347.459,517.236,347.618,517.328z"/>
		<path fill="#FEC556" d="M276.191,517.328l-9.608,5.547c-0.5,0.289-0.672,0.928-0.383,1.429c0.092,0.159,0.224,0.291,0.383,0.383
			l9.608,5.548c0.501,0.289,1.141,0.117,1.43-0.384c0.092-0.159,0.14-0.339,0.14-0.523v-11.094c0-0.578-0.468-1.046-1.045-1.047
			C276.531,517.187,276.35,517.236,276.191,517.328z"/>
		<g>
			<path fill="#663C3B" d="M747.76,401.219c-0.534,0-1.076-0.107-1.597-0.334c-16.946-7.389-34.931-11.132-53.396-11.103H602
				c-2.209,0-4-1.791-4-4s1.791-4,4-4h90.762c0.054,0,0.11,0,0.164,0c19.534,0,38.521,3.959,56.435,11.77
				c2.025,0.883,2.951,3.24,2.068,5.265C750.772,400.321,749.303,401.219,747.76,401.219z"/>
		</g>
		<g>
			<path fill="#663C3B" d="M257.763,401.218c-1.543,0-3.013-0.898-3.668-2.402c-0.883-2.025,0.043-4.382,2.068-5.265
				c17.963-7.831,37.044-11.779,56.603-11.769H402c2.209,0,4,1.791,4,4s-1.791,4-4,4h-89.239
				c-18.49,0.015-36.456,3.715-53.401,11.102C258.839,401.11,258.296,401.218,257.763,401.218z"/>
		</g>
		<g>
			<path fill="#663C3B" d="M692.386,658.872c-14.012,0-28.089-2.207-41.803-6.655c-33.719-10.938-61.266-34.138-77.758-65.436
				H431.683c-11.315,21.446-28.186,39.441-48.884,52.12c-21.223,13-45.596,19.874-70.484,19.88c-0.009,0-0.022,0-0.031,0
				c-74.427,0.002-134.982-60.539-135-134.969c-0.008-36.06,14.026-69.965,39.519-95.469c25.492-25.504,59.39-39.554,95.45-39.562
				h380l0,0c24.897,0.002,49.279,6.877,70.51,19.881s38.433,31.601,49.746,53.779c16.388,32.125,19.285,68.708,8.157,103.011
				c-11.128,34.303-34.948,62.22-67.072,78.606C734.312,653.896,713.423,658.872,692.386,658.872z M429.86,580.781h144.789
				c1.128,0,2.16,0.632,2.673,1.637c15.658,30.696,42.334,53.458,75.113,64.092c32.778,10.633,67.736,7.864,98.434-7.795
				c30.696-15.658,53.458-42.334,64.092-75.113c10.633-32.778,7.865-67.736-7.795-98.433
				c-22.146-43.413-66.177-70.383-114.911-70.387h-380c-34.457,0.008-66.848,13.434-91.207,37.804
				c-24.359,24.371-37.771,56.769-37.762,91.225c0.008,34.457,13.434,66.849,37.804,91.208
				c24.363,24.353,56.75,37.763,91.195,37.763c0.01,0,0.02,0,0.03,0c48.714-0.012,92.731-26.974,114.873-70.363
				C427.7,581.413,428.732,580.781,429.86,580.781z"/>
		</g>
		<path opacity="0.17" enable-background="new    " d="M635.608,519.954l39.598-39.598c8.592-8.592,22.521-8.592,31.113,0l0,0
			c8.592,8.592,8.592,22.521,0,31.113l-39.598,39.598c-8.592,8.592-22.521,8.592-31.113,0l0,0
			C627.016,542.475,627.016,528.545,635.608,519.954z"/>
		<path fill="#FEC556" d="M633.607,515.954l39.598-39.598c8.591-8.592,22.521-8.592,31.113,0l0,0c8.592,8.592,8.592,22.521,0,31.113
			l-39.598,39.598c-8.592,8.592-22.521,8.592-31.113,0l0,0C625.016,538.475,625.016,524.545,633.607,515.954z"/>
		<g>
			<path fill="#663C3B" d="M649.164,554.999c-6.019,0.001-12.035-2.29-16.617-6.872c-4.438-4.438-6.883-10.34-6.883-16.617
				s2.444-12.178,6.883-16.616l39.598-39.598c9.162-9.163,24.072-9.163,33.234,0c9.162,9.162,9.162,24.071,0,33.234l-39.599,39.598
				C661.199,552.708,655.181,554.998,649.164,554.999z M688.762,471.422c-5.25,0-10.499,1.998-14.496,5.995l-39.598,39.598l0,0
				c-3.872,3.872-6.004,9.02-6.004,14.495s2.132,10.624,6.004,14.496c7.992,7.992,20.999,7.994,28.991,0l39.599-39.598
				c7.992-7.993,7.992-20.999,0-28.992C699.262,473.42,694.011,471.422,688.762,471.422z M633.607,515.954h0.01H633.607z"/>
		</g>
		<circle fill="#32B94D" cx="649.164" cy="531.51" r="14"/>
		<g>
			<path fill="#663C3B" d="M640.201,531.726c-0.029,0-0.059-0.001-0.088-0.004c-0.551-0.048-0.957-0.533-0.909-1.083
				c0.48-5.493,5.339-9.562,10.832-9.091c0.551,0.048,0.957,0.533,0.909,1.083c-0.047,0.551-0.542,0.967-1.083,0.909
				c-4.404-0.389-8.282,2.88-8.666,7.272C641.151,531.333,640.714,531.726,640.201,531.726z"/>
		</g>
		<g>
			<path fill="#663C3B" d="M649.164,547.01c-8.547,0-15.5-6.953-15.5-15.5s6.953-15.5,15.5-15.5s15.5,6.953,15.5,15.5
				S657.711,547.01,649.164,547.01z M649.164,519.01c-6.893,0-12.5,5.607-12.5,12.5s5.607,12.5,12.5,12.5s12.5-5.607,12.5-12.5
				S656.057,519.01,649.164,519.01z"/>
		</g>
		<circle fill="#8BD8F5" cx="688.762" cy="491.912" r="14"/>
		<g>
			<path fill="#663C3B" d="M679.762,492.912c-0.553,0-1-0.448-1-1c0-5.514,4.486-10,10-10c0.553,0,1,0.448,1,1s-0.447,1-1,1
				c-4.411,0-8,3.589-8,8C680.762,492.464,680.314,492.912,679.762,492.912z"/>
		</g>
		<g>
			<path fill="#663C3B" d="M688.762,507.412c-8.547,0-15.5-6.953-15.5-15.5s6.953-15.5,15.5-15.5s15.5,6.953,15.5,15.5
				S697.309,507.412,688.762,507.412z M688.762,479.412c-6.893,0-12.5,5.607-12.5,12.5s5.607,12.5,12.5,12.5s12.5-5.607,12.5-12.5
				S695.654,479.412,688.762,479.412z"/>
		</g>
		<path opacity="0.17" enable-background="new    " d="M682.205,546.225l39.598-39.598c8.592-8.592,22.521-8.592,31.113,0l0,0
			c8.592,8.592,8.592,22.521,0,31.113l-39.598,39.598c-8.592,8.591-22.521,8.591-31.113,0l0,0
			C673.613,568.746,673.613,554.816,682.205,546.225z"/>
		<path fill="#FEC556" d="M681.205,541.224l39.598-39.598c8.592-8.592,22.521-8.592,31.113,0l0,0c8.591,8.592,8.591,22.521,0,31.113
			l-39.598,39.598c-8.591,8.592-22.521,8.592-31.113,0l0,0C672.614,563.745,672.614,549.816,681.205,541.224z"/>
		<g>
			<path fill="#663C3B" d="M696.762,580.27c-6.018,0-12.036-2.291-16.617-6.872c-9.162-9.163-9.162-24.071,0-33.233l39.599-39.599
				c4.438-4.438,10.339-6.883,16.616-6.883s12.179,2.444,16.617,6.883c9.163,9.163,9.163,24.071,0,33.234l-39.598,39.598
				C708.798,577.979,702.779,580.27,696.762,580.27z M736.359,496.683c-5.476,0-10.623,2.132-14.495,6.004l-39.599,39.599
				c-7.992,7.992-7.992,20.998,0,28.991c7.994,7.993,21,7.993,28.992,0l39.598-39.598c7.993-7.993,7.993-20.999,0-28.992
				C746.983,498.815,741.835,496.683,736.359,496.683z"/>
		</g>
		<circle fill="#FEF585" cx="696.762" cy="556.781" r="14"/>
		<g>
			<path fill="#663C3B" d="M687.762,557.781c-0.553,0-1-0.447-1-1c0-5.514,4.486-10,10-10c0.553,0,1,0.447,1,1s-0.447,1-1,1
				c-4.411,0-8,3.589-8,8C688.762,557.334,688.314,557.781,687.762,557.781z"/>
		</g>
		<g>
			<path fill="#663C3B" d="M696.762,572.281c-8.547,0-15.5-6.953-15.5-15.5s6.953-15.5,15.5-15.5s15.5,6.953,15.5,15.5
				S705.309,572.281,696.762,572.281z M696.762,544.281c-6.893,0-12.5,5.607-12.5,12.5s5.607,12.5,12.5,12.5s12.5-5.607,12.5-12.5
				S703.654,544.281,696.762,544.281z"/>
		</g>
		<circle fill="#E7503B" cx="736.36" cy="517.183" r="14"/>
		<g>
			<path fill="#663C3B" d="M727.36,518.183c-0.553,0-1-0.447-1-1c0-5.514,4.486-10,10-10c0.553,0,1,0.447,1,1s-0.447,1-1,1
				c-4.411,0-8,3.589-8,8C728.36,517.735,727.913,518.183,727.36,518.183z"/>
		</g>
		<g>
			<path fill="#663C3B" d="M736.36,532.683c-8.547,0-15.5-6.953-15.5-15.5s6.953-15.5,15.5-15.5s15.5,6.953,15.5,15.5
				S744.907,532.683,736.36,532.683z M736.36,504.683c-6.893,0-12.5,5.607-12.5,12.5s5.607,12.5,12.5,12.5s12.5-5.607,12.5-12.5
				S743.253,504.683,736.36,504.683z"/>
		</g>
		<path fill="#663C3B" d="M494.809,496.297L494.809,496.297c3.515,3.515,3.515,9.213,0,12.728l-29.698,29.698
			c-3.515,3.515-9.213,3.515-12.728,0l0,0c-3.515-3.515-3.515-9.213,0-12.728l29.698-29.699
			C485.595,492.782,491.294,492.782,494.809,496.297z"/>
		<path fill="#663C3B" d="M561.808,496.297L561.808,496.297c3.515,3.515,3.515,9.213,0,12.728l-29.698,29.698
			c-3.515,3.515-9.213,3.515-12.728,0l0,0c-3.515-3.515-3.515-9.213,0-12.728l29.698-29.698
			C552.595,492.782,558.293,492.782,561.808,496.297z"/>
		<circle fill="#FEC556" cx="312.762" cy="523.781" r="16"/>
		<path fill="#F29940" d="M312.762,536.51c-8.158-0.113-14.968-6.26-15.912-14.364c-0.058,0.543-0.087,1.089-0.088,1.635
			c0,8.837,7.163,16,16,16s16-7.163,16-16c0-0.546-0.03-1.092-0.089-1.635C327.729,530.25,320.92,536.397,312.762,536.51z"/>
		<g>
			<path fill="#663C3B" d="M300.763,524.781c-0.005,0-0.009,0-0.014,0c-0.552-0.007-0.994-0.461-0.987-1.013
				c0.094-7.189,5.798-12.894,12.987-12.987c0.004,0,0.009,0,0.014,0c0.546,0,0.992,0.439,1,0.987
				c0.007,0.552-0.435,1.006-0.987,1.013c-6.096,0.079-10.934,4.917-11.013,11.013C301.755,524.342,301.309,524.781,300.763,524.781
				z"/>
		</g>
	</g>
</g>
</svg>